<svg width="200" height="160" viewBox="0 0 200 160" fill="none" xmlns="http://www.w3.org/2000/svg">
<g clip-path="url(#clip0_1427_281)">
<path d="M60.2673 33.6705C57.2693 23.5137 49.1314 24.6269 43.5673 29.3575C29.8611 42.0182 12.0144 68.5924 23.4364 106.857C33.0022 139.275 72.8054 160.006 72.8054 160.006H26.4054C26.4054 160.006 2.44713 133.153 0.30541 101.571C-2.40719 61.6407 13.5847 36.4575 32.1453 20.0407C49.5635 4.59701 66.1253 0.00585938 66.1253 0.00585938L100.004 111.006L133.882 0.00585938C133.882 0.00585938 150.444 4.59702 167.862 20.0407C186.423 36.4575 202.415 61.6407 199.702 101.571C197.56 133.153 173.602 160.006 173.602 160.006H127.202C127.202 160.006 167.002 139.275 176.571 106.857C187.993 68.5968 170.146 42.0226 156.44 29.3575C150.872 24.6269 142.734 23.5137 139.74 33.6705C129.46 66.0879 100.008 158.97 100.008 158.97C100.008 158.97 70.5555 66.0568 60.2758 33.6705H60.2673Z" fill="#204982"/>
</g>
<defs>
<clipPath id="clip0_1427_281">
<rect width="200" height="160" fill="white"/>
</clipPath>
</defs>
</svg>
