<svg width="40" height="40" viewBox="0 0 40 40" fill="none" xmlns="http://www.w3.org/2000/svg">
<path d="M20 5.00586C19.344 5.00586 18.6945 5.13506 18.0885 5.38608C17.4825 5.6371 16.9318 6.00503 16.468 6.46886C16.0042 6.93269 15.6362 7.48333 15.3852 8.08936C15.1342 8.69538 15.005 9.34491 15.005 10.0009C15.005 10.6568 15.1342 11.3063 15.3852 11.9124C15.6362 12.5184 16.0042 13.069 16.468 13.5329C16.9318 13.9967 17.4825 14.3646 18.0885 14.6156C18.6945 14.8667 19.344 14.9959 20 14.9959C21.3248 14.9959 22.5953 14.4696 23.532 13.5329C24.4687 12.5961 24.995 11.3256 24.995 10.0009C24.995 8.6761 24.4687 7.4056 23.532 6.46886C22.5953 5.53212 21.3248 5.00586 20 5.00586ZM31.25 7.50086C30.2554 7.50086 29.3016 7.89595 28.5983 8.59921C27.8951 9.30247 27.5 10.2563 27.5 11.2509C27.5 12.2454 27.8951 13.1992 28.5983 13.9025C29.3016 14.6058 30.2554 15.0009 31.25 15.0009C32.2446 15.0009 33.1984 14.6058 33.9017 13.9025C34.6049 13.1992 35 12.2454 35 11.2509C35 10.2563 34.6049 9.30247 33.9017 8.59921C33.1984 7.89595 32.2446 7.50086 31.25 7.50086ZM8.75 7.50086C7.75544 7.50086 6.80161 7.89595 6.09835 8.59921C5.39509 9.30247 5 10.2563 5 11.2509C5 12.2454 5.39509 13.1992 6.09835 13.9025C6.80161 14.6058 7.75544 15.0009 8.75 15.0009C9.74456 15.0009 10.6984 14.6058 11.4017 13.9025C12.1049 13.1992 12.5 12.2454 12.5 11.2509C12.5 10.2563 12.1049 9.30247 11.4017 8.59921C10.6984 7.89595 9.74456 7.50086 8.75 7.50086ZM12.5 19.9834C12.5046 19.3234 12.7701 18.692 13.2384 18.2269C13.7067 17.7618 14.34 17.5008 15 17.5009H25C25.663 17.5009 26.2989 17.7643 26.7678 18.2331C27.2366 18.7019 27.5 19.3378 27.5 20.0009V27.5009C27.5007 28.2877 27.3775 29.0698 27.135 29.8184C26.5814 31.5151 25.4411 32.959 23.9188 33.8906C22.3965 34.8223 20.5919 35.1807 18.8291 34.9015C17.0663 34.6224 15.4607 33.724 14.3007 32.3676C13.1407 31.0111 12.5023 29.2856 12.5 27.5009V19.9834ZM10 20.0009C10 19.0884 10.2425 18.2359 10.67 17.5009H5C4.33696 17.5009 3.70107 17.7643 3.23223 18.2331C2.76339 18.7019 2.5 19.3378 2.5 20.0009V26.2509C2.49966 27.2741 2.75057 28.2818 3.23068 29.1855C3.7108 30.0891 4.40544 30.861 5.25361 31.4335C6.10177 32.0059 7.07751 32.3613 8.09514 32.4685C9.11277 32.5758 10.1412 32.4315 11.09 32.0484C10.372 30.6392 9.99843 29.0799 10 27.4984V20.0009ZM30 20.0009V27.5009C30 29.1384 29.6075 30.6834 28.91 32.0484C29.8588 32.4315 30.8872 32.5758 31.9049 32.4685C32.9225 32.3613 33.8982 32.0059 34.7464 31.4335C35.5946 30.861 36.2892 30.0891 36.7693 29.1855C37.2494 28.2818 37.5003 27.2741 37.5 26.2509V20.0009C37.5 19.3378 37.2366 18.7019 36.7678 18.2331C36.2989 17.7643 35.663 17.5009 35 17.5009H29.33C29.755 18.2359 30 19.0884 30 20.0009Z" fill="url(#paint0_linear_4024_1321)"/>
<defs>
<linearGradient id="paint0_linear_4024_1321" x1="0.641076" y1="20.0005" x2="39.3908" y2="20.0005" gradientUnits="userSpaceOnUse">
<stop stop-color="#F69220"/>
<stop offset="0.2863" stop-color="#F68E20"/>
<stop offset="0.5401" stop-color="#F48421"/>
<stop offset="0.7807" stop-color="#F37221"/>
<stop offset="1" stop-color="#F05A22"/>
</linearGradient>
</defs>
</svg>
